<svg xmlns="http://www.w3.org/2000/svg" viewBox="0 11.579999923706055 62.39018249511719 37.349998474121094" data-asc="0.96875" width="62.39018249511719" height="37.349998474121094"><defs/><g fill="#000000"><g transform="translate(0, 0)"><path d="M20.70 22.98Q20.53 21.02 19.13 19.93Q17.74 18.84 15.16 18.84Q13.46 18.84 12.32 19.28Q11.19 19.73 10.62 20.50Q10.05 21.27 10.03 22.27Q10.00 23.08 10.36 23.70Q10.72 24.33 11.43 24.80Q12.13 25.27 13.12 25.62Q14.12 25.98 15.36 26.24L18.48 26.95Q21.18 27.54 23.25 28.52Q25.32 29.49 26.73 30.84Q28.14 32.19 28.87 33.95Q29.60 35.71 29.62 37.89Q29.60 41.34 27.88 43.80Q26.15 46.27 22.93 47.59Q19.71 48.90 15.16 48.90Q10.60 48.90 7.21 47.53Q3.82 46.16 1.94 43.38Q0.05 40.59 0 36.33L8.42 36.33Q8.52 38.09 9.36 39.26Q10.19 40.43 11.66 41.03Q13.12 41.64 15.06 41.64Q16.83 41.64 18.08 41.16Q19.34 40.68 20.01 39.83Q20.69 38.97 20.70 37.87Q20.69 36.84 20.06 36.11Q19.44 35.37 18.16 34.83Q16.87 34.29 14.88 33.82L11.08 32.94Q6.36 31.85 3.64 29.43Q0.92 27.01 0.94 22.87Q0.92 19.50 2.75 16.96Q4.58 14.42 7.81 13.00Q11.04 11.58 15.18 11.58Q19.41 11.58 22.52 13.01Q25.64 14.44 27.36 17.01Q29.08 19.58 29.12 22.98L20.70 22.98ZM47.83 48.93Q43.68 48.93 40.47 47.51Q37.27 46.08 35.42 43.55Q33.58 41.03 33.54 37.75L42.38 37.75Q42.44 38.94 43.15 39.85Q43.86 40.77 45.08 41.28Q46.31 41.80 47.87 41.80Q49.43 41.80 50.63 41.24Q51.83 40.68 52.50 39.69Q53.18 38.71 53.16 37.43Q53.18 36.15 52.43 35.16Q51.69 34.16 50.33 33.61Q48.97 33.06 47.12 33.06L43.59 33.06L43.59 26.81L47.12 26.81Q48.74 26.81 49.97 26.28Q51.21 25.75 51.90 24.78Q52.59 23.81 52.57 22.55Q52.59 21.32 52.00 20.39Q51.40 19.46 50.35 18.95Q49.29 18.43 47.90 18.43Q46.45 18.43 45.27 18.95Q44.09 19.46 43.39 20.40Q42.70 21.34 42.67 22.59L34.27 22.59Q34.30 19.34 36.08 16.86Q37.86 14.38 40.92 12.98Q43.98 11.58 47.90 11.58Q51.81 11.58 54.78 12.94Q57.74 14.31 59.39 16.66Q61.04 19.02 61.04 21.98Q61.06 25.05 59.05 27.04Q57.03 29.03 53.87 29.49L53.87 29.78Q58.10 30.27 60.25 32.51Q62.41 34.75 62.39 38.10Q62.39 41.26 60.54 43.71Q58.68 46.15 55.39 47.54Q52.10 48.93 47.83 48.93Z"/></g></g></svg>